<svg xmlns="http://www.w3.org/2000/svg" width="27.576" height="33.186" viewBox="0 0 27.576 33.186"><defs><style>.a,.e{fill:#f0f5fc;}.b{fill:none;}.b,.e,.f{stroke:#000;stroke-linecap:round;stroke-linejoin:round;}.c,.f{fill:#96d6ab;}.d{fill:#cac6ff;}</style></defs><g transform="translate(-20.198 -9.8)"><g transform="translate(20.698 10.3)"><g transform="translate(0 21.871)"><rect class="a" width="8.676" height="8.097" rx="1.163"/><path class="a" d="M28.712,60.4a.461.461,0,0,0,.461.461h.813a.461.461,0,0,0,.461-.461V57.722H28.712Z" transform="translate(-25.242 -57.722)"/><path class="b" d="M28.712,60.4a.461.461,0,0,0,.461.461h.813a.461.461,0,0,0,.461-.461V57.722H28.712Z" transform="translate(-25.242 -57.722)"/><rect class="b" width="8.676" height="8.097" rx="1.163"/></g><g transform="translate(1.571 26.651)"><path class="a" d="M30.006,72.764a.415.415,0,0,0,0-.588L28.83,71a.208.208,0,0,1,0-.294l1.176-1.176a.415.415,0,0,0,0-.588l-.735-.735a.415.415,0,0,0-.588,0l-1.176,1.176a.208.208,0,0,1-.294,0l-1.176-1.176a.415.415,0,0,0-.588,0l-.735.735a.415.415,0,0,0,0,.588l1.176,1.176a.208.208,0,0,1,0,.294l-1.176,1.176a.415.415,0,0,0,0,.588l.735.735a.415.415,0,0,0,.588,0l1.176-1.176a.208.208,0,0,1,.294,0L28.684,73.5a.415.415,0,0,0,.588,0Z" transform="translate(-24.593 -68.085)"/><path class="b" d="M30.006,72.764a.415.415,0,0,0,0-.588L28.83,71a.208.208,0,0,1,0-.294l1.176-1.176a.415.415,0,0,0,0-.588l-.735-.735a.415.415,0,0,0-.588,0l-1.176,1.176a.208.208,0,0,1-.294,0l-1.176-1.176a.415.415,0,0,0-.588,0l-.735.735a.415.415,0,0,0,0,.588l1.176,1.176a.208.208,0,0,1,0,.294l-1.176,1.176a.415.415,0,0,0,0,.588l.735.735a.415.415,0,0,0,.588,0l1.176-1.176a.208.208,0,0,1,.294,0L28.684,73.5a.415.415,0,0,0,.588,0Z" transform="translate(-24.593 -68.085)"/></g><g transform="translate(17.9 21.871)"><rect class="a" width="8.676" height="8.097" rx="1.163"/><path class="a" d="M67.524,60.4a.461.461,0,0,0,.461.461H68.8a.461.461,0,0,0,.461-.461V57.722H67.524Z" transform="translate(-64.054 -57.722)"/><path class="b" d="M67.524,60.4a.461.461,0,0,0,.461.461H68.8a.461.461,0,0,0,.461-.461V57.722H67.524Z" transform="translate(-64.054 -57.722)"/><rect class="b" width="8.676" height="8.097" rx="1.163"/></g><g transform="translate(19.471 26.651)"><path class="a" d="M68.818,72.764a.415.415,0,0,0,0-.588L67.643,71a.208.208,0,0,1,0-.294l1.176-1.176a.415.415,0,0,0,0-.588l-.735-.735a.415.415,0,0,0-.588,0L66.32,69.383a.208.208,0,0,1-.294,0L64.85,68.207a.415.415,0,0,0-.588,0l-.735.735a.415.415,0,0,0,0,.588L64.7,70.706a.208.208,0,0,1,0,.294l-1.176,1.176a.415.415,0,0,0,0,.588l.735.735a.415.415,0,0,0,.588,0l1.176-1.176a.208.208,0,0,1,.294,0L67.5,73.5a.415.415,0,0,0,.588,0Z" transform="translate(-63.405 -68.085)"/><path class="b" d="M68.818,72.764a.415.415,0,0,0,0-.588L67.643,71a.208.208,0,0,1,0-.294l1.176-1.176a.415.415,0,0,0,0-.588l-.735-.735a.415.415,0,0,0-.588,0L66.32,69.383a.208.208,0,0,1-.294,0L64.85,68.207a.415.415,0,0,0-.588,0l-.735.735a.415.415,0,0,0,0,.588L64.7,70.706a.208.208,0,0,1,0,.294l-1.176,1.176a.415.415,0,0,0,0,.588l.735.735a.415.415,0,0,0,.588,0l1.176-1.176a.208.208,0,0,1,.294,0L67.5,73.5a.415.415,0,0,0,.588,0Z" transform="translate(-63.405 -68.085)"/></g><g transform="translate(3.55)"><rect class="c" width="19.476" height="18.177" rx="2.611" transform="translate(0 0)"/><path class="d" d="M45.776,15.857a.461.461,0,0,0,.461.461H49.21a.461.461,0,0,0,.461-.461V10.3H45.776Z" transform="translate(-37.986 -10.3)"/><path class="e" d="M45.776,15.857a.461.461,0,0,0,.461.461H49.21a.461.461,0,0,0,.461-.461V10.3H45.776Z" transform="translate(-37.986 -10.3)"/><rect class="b" width="19.476" height="18.177" rx="2.611" transform="translate(0 0)"/><g transform="translate(3.307 7.809)"><circle class="d" cx="6.431" cy="6.431" r="6.431"/><circle class="e" cx="6.431" cy="6.431" r="6.431"/><path class="f" d="M44.581,40.66a1.259,1.259,0,0,1-.893-.369L42,38.607a1.263,1.263,0,1,1,1.786-1.786l.791.788,2.615-2.7a1.262,1.262,0,1,1,1.785,1.785l-3.508,3.6a1.256,1.256,0,0,1-.892.371Z" transform="translate(-39.061 -31.167)"/></g></g></g></g></svg>