<svg xmlns="http://www.w3.org/2000/svg" width="36.911" height="48.054" viewBox="0 0 36.911 48.054"><defs><style>.a{fill:#96d6ab;}.a,.b{stroke:#f0f5fc;stroke-width:0.3px;}.c{stroke:none;}.d{fill:none;}</style></defs><g transform="translate(-71.85 -15.85)"><g class="a" transform="translate(76 32.755)"><rect class="c" width="29" height="18"/><rect class="d" x="0.15" y="0.15" width="28.7" height="17.7"/></g><path class="b" d="M106.82,63.754a1.793,1.793,0,0,0,1.791-1.791V17.791A1.793,1.793,0,0,0,106.82,16H73.791A1.793,1.793,0,0,0,72,17.791V61.963a1.793,1.793,0,0,0,1.791,1.791ZM73.592,61.963V17.791a.2.2,0,0,1,.2-.2h33.03a.2.2,0,0,1,.2.2V61.963a.2.2,0,0,1-.2.2H73.791A.2.2,0,0,1,73.592,61.963Z" transform="translate(0)"/><path class="b" d="M312.8,113.592h7.163a.8.8,0,0,0,0-1.592H312.8a.8.8,0,0,0,0,1.592Z" transform="translate(-216.123 -86.449)"/><path class="b" d="M344.8,144a.8.8,0,1,0,0,1.592h3.184a.8.8,0,0,0,0-1.592Z" transform="translate(-244.94 -115.266)"/><path class="b" d="M104.8,195.1H121.51v2.388a.8.8,0,0,0,.8.8h11.143a.8.8,0,0,0,.8-.8V176.8a.8.8,0,0,0-.8-.8H104.8a.8.8,0,0,0-.8.8v17.51A.8.8,0,0,0,104.8,195.1Zm27.856,1.592H123.1V195.1h9.551Zm-17.51-19.1h17.51v1.592h-17.51Zm0,3.184h17.51v3.184h-17.51Zm0,4.775h17.51v3.184h-17.51Zm0,4.775h17.51v3.184h-17.51Zm-9.551-12.734h7.959v1.592h-7.959Zm0,3.184h7.959V193.51h-7.959Z" transform="translate(-28.816 -144.082)"/><path class="b" d="M124.775,400H120.8a.8.8,0,0,0,0,1.592h3.979a.8.8,0,0,0,0-1.592Z" transform="translate(-43.225 -345.797)"/><path class="b" d="M123.184,432H120.8a.8.8,0,1,0,0,1.592h2.388a.8.8,0,1,0,0-1.592Z" transform="translate(-43.225 -374.613)"/><path class="b" d="M120.8,145.592h2.388a.8.8,0,1,0,0-1.592H120.8a.8.8,0,1,0,0,1.592Z" transform="translate(-43.225 -115.266)"/><path class="b" d="M120.8,113.592h3.979a.8.8,0,0,0,0-1.592H120.8a.8.8,0,0,0,0,1.592Z" transform="translate(-43.225 -86.449)"/><path class="b" d="M349.571,432H344.8a.8.8,0,1,0,0,1.592h4.775a.8.8,0,1,0,0-1.592Z" transform="translate(-244.94 -374.613)"/><path class="b" d="M5.238,3.338a.2.2,0,0,0,.2-.2v-.68a.2.2,0,0,0-.2-.2H.2a.2.2,0,0,0-.2.2v.761a.2.2,0,0,0,.2.2h1.45a1.227,1.227,0,0,1,1.037.463H.2a.2.2,0,0,0-.2.2v.68a.2.2,0,0,0,.2.2H2.9a1.175,1.175,0,0,1-1.271,1H.2a.2.2,0,0,0-.2.2v.9a.2.2,0,0,0,.066.15L2.872,9.814a.2.2,0,0,0,.138.054h1.4a.2.2,0,0,0,.138-.354L1.987,7.146A2.33,2.33,0,0,0,4.34,4.971h.9a.2.2,0,0,0,.2-.2v-.68a.2.2,0,0,0-.2-.2h-1A2.329,2.329,0,0,0,4,3.338Z" transform="translate(87.585 18.866)"/></g></svg>