<svg xmlns="http://www.w3.org/2000/svg" width="47.453" height="47.453" viewBox="0 0 47.453 47.453"><defs><style>.a{fill:#f4f4ff;}.b{fill-rule:evenodd;}</style></defs><g transform="translate(-602.546 3788.971)"><g transform="translate(613.643 -3777.559)"><path class="a" d="M976.054-3836.629a5.2,5.2,0,0,0-4.513,2.633c-.106-.009-.212-.015-.318-.016h0a4,4,0,0,0-2.828,1.171,4,4,0,0,0-1.172,2.828h0a4,4,0,0,0,.057.665,4.062,4.062,0,0,0-4.039,4.056,4.062,4.062,0,0,0,4.057,4.057h13.083a4.062,4.062,0,0,0,4.057-4.057,4.063,4.063,0,0,0-3.637-4.035,5.192,5.192,0,0,0,.452-2.107h0a5.2,5.2,0,0,0-1.521-3.673,5.194,5.194,0,0,0-3.673-1.521h0Z" transform="translate(-961.184 3836.629)"/><path d="M976.054-3836.629a5.2,5.2,0,0,0-4.513,2.633c-.106-.009-.212-.015-.318-.016h0a4,4,0,0,0-2.828,1.171,4,4,0,0,0-1.172,2.828h0a4,4,0,0,0,.057.665,4.062,4.062,0,0,0-4.039,4.056,4.062,4.062,0,0,0,4.057,4.057H971.4a.644.644,0,0,0,.644-.644.644.644,0,0,0-.644-.644h-4.105a2.749,2.749,0,0,1-2.769-2.77,2.749,2.749,0,0,1,2.769-2.77h.834a.644.644,0,0,0,.536-.288.644.644,0,0,0,.056-.607,2.712,2.712,0,0,1-.215-1.057h0a2.713,2.713,0,0,1,.794-1.918,2.71,2.71,0,0,1,1.916-.794,2.71,2.71,0,0,1,.552.06.643.643,0,0,0,.723-.366,3.9,3.9,0,0,1,3.562-2.311,3.905,3.905,0,0,1,2.762,1.144,3.906,3.906,0,0,1,1.144,2.762,3.909,3.909,0,0,1-.786,2.344.643.643,0,0,0-.062.674.644.644,0,0,0,.576.356h.688a2.749,2.749,0,0,1,2.769,2.769,2.749,2.749,0,0,1-2.769,2.77h-4.312a.643.643,0,0,0-.644.644.644.644,0,0,0,.644.644h4.312a4.062,4.062,0,0,0,4.057-4.057,4.063,4.063,0,0,0-3.637-4.035,5.192,5.192,0,0,0,.452-2.107h0a5.2,5.2,0,0,0-1.521-3.673,5.194,5.194,0,0,0-3.673-1.521h0Z" transform="translate(-961.184 3836.629)"/><path class="b" d="M656.643-2028.023a.644.644,0,0,0-.634.653v7.5h-6.861v-1.287a.644.644,0,0,0-.643-.644h-3.861a.644.644,0,0,0-.644.644v3.861a.643.643,0,0,0,.644.644H648.5a.644.644,0,0,0,.644-.643v-1.287h7.3a.641.641,0,0,0,.4,0h7.257v1.287a.643.643,0,0,0,.643.644h3.861a.644.644,0,0,0,.644-.643v-3.862a.644.644,0,0,0-.643-.644h-3.861a.644.644,0,0,0-.644.644v1.287H657.3v-7.5a.643.643,0,0,0-.189-.464A.644.644,0,0,0,656.643-2028.023Zm-11.356,7.514h2.574v2.574h-2.574Zm20.111,0h2.574v2.574H665.4Z" transform="translate(-644 2039.663)"/></g><path d="M40.5,6.949a23.729,23.729,0,0,0-37.523,28.3A.7.7,0,1,0,4.2,34.57a22.358,22.358,0,1,1,1.98,2.973.7.7,0,0,0-1.092.861A23.727,23.727,0,1,0,40.5,6.949Z" transform="translate(602.546 -3788.971)"/></g></svg>