<svg xmlns="http://www.w3.org/2000/svg" width="29.067" height="31.565" viewBox="0 0 29.067 31.565"><defs><style>.a{fill:#96d6ab;}.b{stroke:#96d6ab;stroke-width:0.2px;}</style></defs><g transform="translate(-10.484 -13.764)"><g transform="translate(10.484 13.764)"><path d="M34.725,48.815h-2.4a.4.4,0,0,1-.4-.4.8.8,0,0,0-1.6,0,.4.4,0,0,1-.4.4h-2.4a.4.4,0,0,1-.4-.4.8.8,0,1,0-1.6,0,.4.4,0,0,1-.4.4h-2.4a.4.4,0,0,1-.4-.4.8.8,0,0,0-1.6,0,.4.4,0,0,1-.4.4h-2.4a.4.4,0,0,1-.4-.4.8.8,0,0,0-1.6,0,.4.4,0,0,1-.4.4h-2.4a.4.4,0,0,1-.4-.4V17.65a.4.4,0,0,1,.4-.4h2.4a.4.4,0,0,1,.4.4.8.8,0,0,0,1.6,0,.4.4,0,0,1,.4-.4h2.4a.4.4,0,0,1,.4.4.8.8,0,0,0,1.6,0,.4.4,0,0,1,.4-.4h2.4a.4.4,0,0,1,.4.4.8.8,0,1,0,1.6,0,.4.4,0,0,1,.4-.4h2.4a.4.4,0,0,1,.4.4.8.8,0,0,0,1.6,0,.4.4,0,0,1,.4-.4h2.4a.4.4,0,0,1,.4.4V48.415A.4.4,0,0,1,34.725,48.815Zm-2.048-.8h1.649V18.049H32.677a1.6,1.6,0,0,1-3.1,0h-1.7a1.6,1.6,0,0,1-3.1,0h-1.7a1.6,1.6,0,0,1-3.1,0h-1.7a1.6,1.6,0,0,1-3.1,0H13.549V48.015H15.2a1.6,1.6,0,0,1,3.1,0h1.7a1.6,1.6,0,0,1,3.1,0h1.7a1.6,1.6,0,0,1,3.1,0h1.7a1.6,1.6,0,0,1,3.093,0Z" transform="translate(-12.75 -17.25)"/></g><g transform="translate(26.484 17.764)"><path class="a" d="M44.574,34.946H34.121a.871.871,0,0,1-.871-.871V23.621a.871.871,0,0,1,.871-.871H44.574a.871.871,0,0,1,.871.871V34.074A.871.871,0,0,1,44.574,34.946Z" transform="translate(-32.814 -22.314)"/><path d="M44.51,35.317H34.057A1.308,1.308,0,0,1,32.75,34.01V23.557a1.308,1.308,0,0,1,1.307-1.307H44.51a1.308,1.308,0,0,1,1.307,1.307V34.01A1.308,1.308,0,0,1,44.51,35.317Zm-10.453-12.2a.436.436,0,0,0-.436.436V34.01a.436.436,0,0,0,.436.436H44.51a.436.436,0,0,0,.436-.436V23.557a.436.436,0,0,0-.436-.436Z" transform="translate(-32.75 -22.25)"/></g><g transform="translate(14.48 21.755)"><path d="M22.345,28.049h-4.2a.4.4,0,0,1,0-.8h4.2a.4.4,0,0,1,0,.8Z" transform="translate(-17.75 -27.25)"/></g><g transform="translate(14.48 24.952)"><path d="M22.345,32.049h-4.2a.4.4,0,0,1,0-.8h4.2a.4.4,0,0,1,0,.8Z" transform="translate(-17.75 -31.25)"/></g><g transform="translate(14.48 28.148)"><path d="M22.345,36.049h-4.2a.4.4,0,0,1,0-.8h4.2a.4.4,0,0,1,0,.8Z" transform="translate(-17.75 -35.25)"/></g><g transform="translate(14.48 32.144)"><path d="M30.336,41.049H18.15a.4.4,0,1,1,0-.8H30.336a.4.4,0,1,1,0,.8Z" transform="translate(-17.75 -40.25)"/></g><g transform="translate(14.48 34.541)"><path d="M26.141,47.246H18.15a.4.4,0,0,1-.4-.4v-3.2a.4.4,0,0,1,.4-.4h7.991a.4.4,0,0,1,.4.4v3.2A.4.4,0,0,1,26.141,47.246Zm-7.591-.8h7.192v-2.4H18.549Z" transform="translate(-17.75 -43.25)"/></g><path class="b" d="M5.143,3.319a.2.2,0,0,0,.2-.2V2.45a.2.2,0,0,0-.2-.2H.2a.2.2,0,0,0-.2.2V3.2a.2.2,0,0,0,.2.2H1.624a1.2,1.2,0,0,1,1.018.455H.2a.2.2,0,0,0-.2.2v.668a.2.2,0,0,0,.2.2H2.851A1.154,1.154,0,0,1,1.6,5.9H.2a.2.2,0,0,0-.2.2v.885a.2.2,0,0,0,.064.147L2.82,9.677a.2.2,0,0,0,.136.053H4.335a.2.2,0,0,0,.136-.348L1.951,7.057A2.287,2.287,0,0,0,4.261,4.921h.882a.2.2,0,0,0,.2-.2V4.053a.2.2,0,0,0-.2-.2h-.98a2.287,2.287,0,0,0-.238-.534Z" transform="translate(30.484 18.514)"/></g></svg>