<svg xmlns="http://www.w3.org/2000/svg" width="40.784" height="49.181" viewBox="0 0 40.784 49.181"><defs><style>.a,.e{fill:#f0f5fc;}.b{fill:none;}.b,.e,.f{stroke:#000;stroke-linecap:round;stroke-linejoin:round;}.c,.f{fill:#96d6ab;}.d{fill:#cac6ff;}</style></defs><g transform="translate(-20.198 -9.8)"><g transform="translate(20.698 10.3)"><g transform="translate(0 32.74)"><rect class="a" width="12.988" height="12.121" rx="1.163"/><path class="a" d="M28.712,61.726a.69.69,0,0,0,.69.69h1.216a.69.69,0,0,0,.69-.69v-4h-2.6Z" transform="translate(-23.517 -57.722)"/><path class="b" d="M28.712,61.726a.69.69,0,0,0,.69.69h1.216a.69.69,0,0,0,.69-.69v-4h-2.6Z" transform="translate(-23.517 -57.722)"/><rect class="b" width="12.988" height="12.121" rx="1.163"/></g><g transform="translate(2.351 39.895)"><path class="a" d="M32.7,75.089a.621.621,0,0,0,0-.88l-1.761-1.76a.311.311,0,0,1,0-.44L32.7,70.248a.621.621,0,0,0,0-.88l-1.1-1.1a.621.621,0,0,0-.88,0l-1.761,1.761a.311.311,0,0,1-.44,0l-1.76-1.761a.621.621,0,0,0-.88,0l-1.1,1.1a.621.621,0,0,0,0,.88l1.76,1.761a.311.311,0,0,1,0,.44l-1.76,1.76a.621.621,0,0,0,0,.88l1.1,1.1a.621.621,0,0,0,.88,0l1.76-1.76a.311.311,0,0,1,.44,0l1.761,1.76a.621.621,0,0,0,.88,0Z" transform="translate(-24.593 -68.085)"/><path class="b" d="M32.7,75.089a.621.621,0,0,0,0-.88l-1.761-1.76a.311.311,0,0,1,0-.44L32.7,70.248a.621.621,0,0,0,0-.88l-1.1-1.1a.621.621,0,0,0-.88,0l-1.761,1.761a.311.311,0,0,1-.44,0l-1.76-1.761a.621.621,0,0,0-.88,0l-1.1,1.1a.621.621,0,0,0,0,.88l1.76,1.761a.311.311,0,0,1,0,.44l-1.76,1.76a.621.621,0,0,0,0,.88l1.1,1.1a.621.621,0,0,0,.88,0l1.76-1.76a.311.311,0,0,1,.44,0l1.761,1.76a.621.621,0,0,0,.88,0Z" transform="translate(-24.593 -68.085)"/></g><g transform="translate(26.796 32.74)"><rect class="a" width="12.988" height="12.121" rx="1.163"/><path class="a" d="M67.524,61.726a.69.69,0,0,0,.69.69h1.216a.69.69,0,0,0,.69-.69v-4h-2.6Z" transform="translate(-62.329 -57.722)"/><path class="b" d="M67.524,61.726a.69.69,0,0,0,.69.69h1.216a.69.69,0,0,0,.69-.69v-4h-2.6Z" transform="translate(-62.329 -57.722)"/><rect class="b" width="12.988" height="12.121" rx="1.163"/></g><g transform="translate(29.147 39.895)"><path class="a" d="M71.508,75.089a.621.621,0,0,0,0-.88l-1.76-1.76a.311.311,0,0,1,0-.44l1.76-1.761a.621.621,0,0,0,0-.88l-1.1-1.1a.621.621,0,0,0-.88,0l-1.76,1.761a.311.311,0,0,1-.44,0l-1.76-1.761a.621.621,0,0,0-.88,0l-1.1,1.1a.621.621,0,0,0,0,.88l1.76,1.761a.311.311,0,0,1,0,.44l-1.76,1.76a.621.621,0,0,0,0,.88l1.1,1.1a.621.621,0,0,0,.88,0l1.76-1.76a.311.311,0,0,1,.44,0l1.76,1.76a.621.621,0,0,0,.88,0Z" transform="translate(-63.405 -68.085)"/><path class="b" d="M71.508,75.089a.621.621,0,0,0,0-.88l-1.76-1.76a.311.311,0,0,1,0-.44l1.76-1.761a.621.621,0,0,0,0-.88l-1.1-1.1a.621.621,0,0,0-.88,0l-1.76,1.761a.311.311,0,0,1-.44,0l-1.76-1.761a.621.621,0,0,0-.88,0l-1.1,1.1a.621.621,0,0,0,0,.88l1.76,1.761a.311.311,0,0,1,0,.44l-1.76,1.76a.621.621,0,0,0,0,.88l1.1,1.1a.621.621,0,0,0,.88,0l1.76-1.76a.311.311,0,0,1,.44,0l1.76,1.76a.621.621,0,0,0,.88,0Z" transform="translate(-63.405 -68.085)"/></g><g transform="translate(5.314)"><rect class="c" width="29.155" height="27.21" rx="2.611" transform="translate(0 0.001)"/><path class="d" d="M45.776,18.618a.69.69,0,0,0,.69.69h4.45a.69.69,0,0,0,.69-.69V10.3h-5.83Z" transform="translate(-34.114 -10.3)"/><path class="e" d="M45.776,18.618a.69.69,0,0,0,.69.69h4.45a.69.69,0,0,0,.69-.69V10.3h-5.83Z" transform="translate(-34.114 -10.3)"/><rect class="b" width="29.155" height="27.21" rx="2.611" transform="translate(0 0.001)"/><g transform="translate(4.95 11.689)"><circle class="d" cx="9.628" cy="9.628" r="9.628"/><circle class="e" cx="9.628" cy="9.628" r="9.628"/><path class="f" d="M46.045,43.7a1.885,1.885,0,0,1-1.337-.552L42.188,40.63a1.89,1.89,0,1,1,2.673-2.673l1.184,1.18L49.96,35.09a1.89,1.89,0,1,1,2.673,2.673l-5.251,5.385a1.881,1.881,0,0,1-1.336.556Z" transform="translate(-37.782 -29.493)"/></g></g></g></g></svg>