<svg xmlns="http://www.w3.org/2000/svg" width="31.77" height="31.704" viewBox="0 0 31.77 31.704"><defs><style>.a{fill:none;}.a,.b{stroke:#000;stroke-linecap:round;stroke-linejoin:round;stroke-miterlimit:10;}.b{fill:#96d6ab;}</style></defs><g transform="translate(-1.2 -1.2)"><g transform="translate(1.7 1.7)"><ellipse class="a" cx="2.905" cy="3.037" rx="2.905" ry="3.037" transform="translate(3.764)"/><g transform="translate(0 8.386)"><path class="a" d="M12.859,22.324a2.142,2.142,0,0,0,2.179-2.113h0c0-4.622-2.971-5.811-6.669-5.811S1.7,15.589,1.7,20.211h0a2.142,2.142,0,0,0,2.179,2.113Z" transform="translate(-1.7 -14.4)"/></g><line class="a" y1="2.047" transform="translate(10.235 14.263)"/><line class="a" y1="2.047" transform="translate(3.169 14.263)"/></g><g transform="translate(19.132 1.7)"><g transform="translate(0)"><ellipse class="a" cx="2.905" cy="3.037" rx="2.905" ry="3.037" transform="translate(3.764)"/><g transform="translate(0 8.386)"><path class="a" d="M39.259,22.324a2.142,2.142,0,0,0,2.179-2.113h0c0-4.622-2.971-5.811-6.669-5.811S28.1,15.589,28.1,20.211h0a2.142,2.142,0,0,0,2.179,2.113Z" transform="translate(-28.1 -14.4)"/></g><line class="a" y1="2.047" transform="translate(10.169 14.263)"/><line class="a" y1="2.047" transform="translate(3.169 14.263)"/></g></g><g transform="translate(10.482 18.934)"><g transform="translate(0 0)"><path class="b" d="M26.687,35.592a4.63,4.63,0,0,1-.792,1.849l.99,1.255-1.123,1.189-1.255-.99a4.63,4.63,0,0,1-1.849.792l-.2,1.585H20.877l-.2-1.585a4.63,4.63,0,0,1-1.849-.792l-1.255.99-1.255-1.123.99-1.255a4.63,4.63,0,0,1-.792-1.849L15,35.393V33.743l1.585-.2a4.63,4.63,0,0,1,.792-1.849l-1.056-1.321,1.123-1.189,1.255.99a4.63,4.63,0,0,1,1.849-.792l.2-1.585h1.585l.2,1.585a4.63,4.63,0,0,1,1.849.792l1.255-.99,1.123,1.189-.99,1.255a4.63,4.63,0,0,1,.792,1.849l1.585.2v1.651Z" transform="translate(-15 -27.8)"/><circle class="a" cx="2.311" cy="2.311" r="2.311" transform="translate(4.292 4.49)"/></g></g></g></svg>