<svg xmlns="http://www.w3.org/2000/svg" width="32.646" height="43.427" viewBox="0 0 32.646 43.427"><defs><style>.a{fill:#96d6ab;}.b{stroke:#f0f5fc;stroke-width:0.3px;}</style></defs><g transform="translate(-5.85 0.15)"><circle class="a" cx="9" cy="9" r="9" transform="translate(19 16.127)"/><path class="b" d="M36.549,43.68a.9.9,0,0,1-.9.9H8.7a.9.9,0,0,1-.9-.9V32H6V43.68a2.7,2.7,0,0,0,2.7,2.7H35.65a2.7,2.7,0,0,0,2.7-2.7V34.7h-1.8Z" transform="translate(0 -3.248)"/><path class="b" d="M38.335,8.929a.9.9,0,0,0-.047-.233c-.01-.029-.017-.056-.03-.084a.9.9,0,0,0-.18-.263L29.992.263a.9.9,0,0,0-.263-.18.834.834,0,0,0-.084-.03.891.891,0,0,0-.234-.047C29.4.01,29.38,0,29.361,0H8.7A2.7,2.7,0,0,0,6,2.7V17.071H7.8V2.7a.9.9,0,0,1,.9-.9H28.462V7.188a2.7,2.7,0,0,0,2.7,2.7h5.391v8.985h1.8V8.985C38.346,8.966,38.336,8.949,38.335,8.929Zm-7.177-.843a.9.9,0,0,1-.9-.9V3.067l5.019,5.019Z"/><rect class="b" width="2" height="2" transform="translate(11 5.127)"/><rect class="b" width="4" height="2" transform="translate(15 5.127)"/><rect class="b" width="8" height="2" transform="translate(11 9.127)"/><path class="b" d="M39.094,26.883a9.883,9.883,0,0,0-16.872-6.988l1.27,1.27a8.086,8.086,0,1,1,.866,12.187L23.28,34.79a9.883,9.883,0,0,0,15.813-7.907Z" transform="translate(-1.647 -1.726)"/><rect class="b" width="2" height="2" transform="translate(32 24.127)"/><rect class="b" width="2" height="2" transform="translate(21 24.127)"/><path class="b" d="M12.492,33.4H18.41l-2.279,2.278,1.27,1.27,3.812-3.811a.9.9,0,0,0,0-1.27L17.4,28.051l-1.27,1.27L18.41,31.6H12.492a2.7,2.7,0,0,1-2.7-2.7H8A4.5,4.5,0,0,0,12.492,33.4Z" transform="translate(-0.203 -2.848)"/><path class="b" d="M8,21.5a.9.9,0,0,0,.263.635l3.812,3.812,1.27-1.27L11.067,22.4h5.019a2.7,2.7,0,0,1,2.7,2.7v1.8h1.8v-1.8A4.5,4.5,0,0,0,16.086,20.6H11.067l2.279-2.278-1.27-1.27L8.263,20.862A.9.9,0,0,0,8,21.5Z" transform="translate(-0.203 -1.731)"/><path class="b" d="M5.238,3.338a.2.2,0,0,0,.2-.2v-.68a.2.2,0,0,0-.2-.2H.2a.2.2,0,0,0-.2.2v.761a.2.2,0,0,0,.2.2h1.45a1.227,1.227,0,0,1,1.037.463H.2a.2.2,0,0,0-.2.2v.68a.2.2,0,0,0,.2.2H2.9a1.175,1.175,0,0,1-1.271,1H.2a.2.2,0,0,0-.2.2v.9a.2.2,0,0,0,.066.15L2.872,9.814a.2.2,0,0,0,.138.054h1.4a.2.2,0,0,0,.138-.354L1.987,7.146A2.33,2.33,0,0,0,4.34,4.971h.9a.2.2,0,0,0,.2-.2v-.68a.2.2,0,0,0-.2-.2h-1A2.329,2.329,0,0,0,4,3.338Z" transform="translate(25.585 19.239)"/></g></svg>