<svg xmlns="http://www.w3.org/2000/svg" width="47.142" height="47.141" viewBox="0 0 47.142 47.141"><defs><style>.a{fill:#f4f4ff;}</style></defs><g transform="translate(0.001 0)"><path class="a" d="M44.368,33.271a2.186,2.186,0,0,0-1.036-1.433l-1.277-.729a10.725,10.725,0,0,0,.18-1.946,10.071,10.071,0,0,0-.31-2.595l1.269-.734a2.1,2.1,0,0,0,.92-2.919l-1.055-1.827A2.418,2.418,0,0,0,41,19.9a2.144,2.144,0,0,0-1.074.285l-1.436.843a10.482,10.482,0,0,0-3.822-2.1L34.658,17.3a2.1,2.1,0,0,0-2.067-2.256h-2.11A2.336,2.336,0,0,0,28.129,17.3V19a10.4,10.4,0,0,0-3.757,2.215L23,20.426a2.508,2.508,0,0,0-1.247-.35,1.969,1.969,0,0,0-1.742,1.013l-1.055,1.827a2.423,2.423,0,0,0-.254,1.732,2.19,2.19,0,0,0,1.04,1.436l1.349.752a10.742,10.742,0,0,0-.022,4.557l-1.193.691A2.1,2.1,0,0,0,18.957,35l1.055,1.827a2.418,2.418,0,0,0,2.06,1.191,2.143,2.143,0,0,0,1.071-.284l1.174-.68a10.7,10.7,0,0,0,4.1,2.34v1.22a2.1,2.1,0,0,0,2.067,2.256h2.111a2.338,2.338,0,0,0,2.351-2.264l-.018-1.3a10.7,10.7,0,0,0,4.042-2.455l1.1.637a2.51,2.51,0,0,0,1.247.35,1.968,1.968,0,0,0,1.741-1.013L44.114,35A2.425,2.425,0,0,0,44.368,33.271Z" transform="translate(-7.777 -5.276)"/><path d="M51.639,47.444a4.909,4.909,0,1,0,4.909,4.909A4.915,4.915,0,0,0,51.639,47.444Zm0,8.683a3.774,3.774,0,1,1,3.773-3.774A3.778,3.778,0,0,1,51.639,56.127Z" transform="translate(-27.881 -28.465)"/><path d="M44.368,33.271a2.186,2.186,0,0,0-1.036-1.433l-1.277-.729a10.725,10.725,0,0,0,.18-1.946,10.071,10.071,0,0,0-.31-2.595l1.269-.734a2.1,2.1,0,0,0,.92-2.919l-1.055-1.827A2.418,2.418,0,0,0,41,19.9a2.144,2.144,0,0,0-1.074.285l-1.436.843a10.482,10.482,0,0,0-3.822-2.1L34.658,17.3a2.1,2.1,0,0,0-2.067-2.256h-2.11A2.336,2.336,0,0,0,28.129,17.3V19a10.4,10.4,0,0,0-3.757,2.215L23,20.426a2.508,2.508,0,0,0-1.247-.35,1.969,1.969,0,0,0-1.742,1.013l-1.055,1.827a2.423,2.423,0,0,0-.254,1.732,2.19,2.19,0,0,0,1.04,1.436l1.349.752a10.742,10.742,0,0,0-.022,4.557l-1.193.691A2.1,2.1,0,0,0,18.957,35l1.055,1.827a2.418,2.418,0,0,0,2.06,1.191,2.143,2.143,0,0,0,1.071-.284l1.174-.68a10.7,10.7,0,0,0,4.1,2.34v1.22a2.1,2.1,0,0,0,2.067,2.256h2.111a2.338,2.338,0,0,0,2.351-2.264l-.018-1.3a10.7,10.7,0,0,0,4.042-2.455l1.1.637a2.51,2.51,0,0,0,1.247.35,1.968,1.968,0,0,0,1.741-1.013L44.114,35A2.425,2.425,0,0,0,44.368,33.271ZM43.13,34.436l-1.055,1.828a.837.837,0,0,1-.758.445,1.38,1.38,0,0,1-.68-.2l-1.87-1.078-.308.323a9.572,9.572,0,0,1-4.267,2.595l-.416.12.029,2.148a1.2,1.2,0,0,1-1.216,1.121H30.48c-.687,0-.931-.6-.931-1.121V38.53l-.425-.11A9.557,9.557,0,0,1,24.8,35.951l-.308-.306-1.917,1.111a.99.99,0,0,1-.5.131A1.281,1.281,0,0,1,21,36.263l-1.055-1.828a.985.985,0,0,1,.505-1.368l1.929-1.117-.107-.416a9.608,9.608,0,0,1,.026-4.837l.114-.427L20.3,25.1a1.065,1.065,0,0,1-.494-.7,1.275,1.275,0,0,1,.131-.912L21,21.656a.837.837,0,0,1,.758-.445,1.379,1.379,0,0,1,.679.2l2.111,1.219.308-.3a9.176,9.176,0,0,1,4-2.357l.414-.117V17.3A1.2,1.2,0,0,1,30.48,16.18h2.11c.688,0,.932.6.932,1.124l.014,2.5.422.11a9.388,9.388,0,0,1,4.074,2.231l.31.289L40.5,21.164a.99.99,0,0,1,.5-.131,1.281,1.281,0,0,1,1.076.623l1.055,1.828a.986.986,0,0,1-.505,1.368l-2.042,1.181.132.432a8.841,8.841,0,0,1,.384,2.7,9.579,9.579,0,0,1-.237,2.11l-.092.41,2,1.139a1.065,1.065,0,0,1,.494.7A1.276,1.276,0,0,1,43.13,34.436Z" transform="translate(-7.777 -5.276)"/><path d="M27.415,5.574a.733.733,0,0,0,.426-.136A22.226,22.226,0,0,1,51.062,4.123l-2.37.986,7.636,2.05L52.313.349l-.324,2.6a23.717,23.717,0,0,0-25,1.285.736.736,0,0,0,.427,1.335Z" transform="translate(-16.854 0)"/><path d="M4.123,26.082l.986,2.369,2.05-7.636L.348,24.831l2.6.325a23.715,23.715,0,0,0,1.285,25,.735.735,0,1,0,1.2-.853A22.227,22.227,0,0,1,4.123,26.082Z" transform="translate(0 -13.149)"/><path d="M49.3,110.279a22.23,22.23,0,0,1-23.221,1.314l2.37-.986-7.636-2.05,4.015,6.81.324-2.6a23.61,23.61,0,0,0,11.488,2.954,23.318,23.318,0,0,0,13.512-4.241.735.735,0,1,0-.853-1.2Z" transform="translate(-13.15 -68.576)"/><path d="M111.48,26.986a.735.735,0,1,0-1.2.853A22.226,22.226,0,0,1,111.6,51.06l-.986-2.37-2.05,7.636,6.81-4.015-2.6-.325A23.713,23.713,0,0,0,111.48,26.986Z" transform="translate(-68.579 -16.852)"/></g></svg>