<svg xmlns="http://www.w3.org/2000/svg" width="44.968" height="30.679" viewBox="0 0 44.968 30.679"><defs><style>.a{fill:#f4f4ff;stroke:#000;}</style></defs><path class="a" d="M.072,31.119V6.7q0-.042.127-.806l14.373,12.3L.242,31.967a3.593,3.593,0,0,1-.17-.848ZM1.98,4.2A1.827,1.827,0,0,1,2.7,4.068H41.412a2.4,2.4,0,0,1,.763.127L27.759,16.533,25.851,18.06l-3.774,3.1L18.3,18.06,16.4,16.533ZM2.022,33.62,16.481,19.756l5.6,4.537,5.6-4.537L42.132,33.62a2.036,2.036,0,0,1-.721.127H2.7a1.92,1.92,0,0,1-.678-.127Zm27.56-15.433,14.331-12.3a2.531,2.531,0,0,1,.127.806V31.119a3.25,3.25,0,0,1-.127.848Z" transform="translate(0.428 -3.568)"/></svg>