<svg xmlns="http://www.w3.org/2000/svg" width="41.801" height="29.158" viewBox="0 0 41.801 29.158"><defs><style>.a{fill:none;stroke-linecap:round;stroke-linejoin:round;stroke-miterlimit:10;}.a,.b{stroke:#000;}.b{fill:#96d6ab;}.c{stroke:#96d6ab;stroke-width:0.2px;}</style></defs><g transform="translate(-0.239 -7.446)"><path class="a" d="M36.01,31.832H7.211A2.631,2.631,0,0,1,4.58,29.2V10.577A2.631,2.631,0,0,1,7.211,7.946h28.8a2.631,2.631,0,0,1,2.631,2.631V29.2A2.631,2.631,0,0,1,36.01,31.832Z" transform="translate(-0.471)"/><path class="a" d="M39.575,39.455H2.7a1.529,1.529,0,0,1-1.448-1.029L.832,37.19A1.519,1.519,0,0,1,2.28,35.183H40a1.52,1.52,0,0,1,1.448,2.007l-.424,1.237A1.528,1.528,0,0,1,39.575,39.455Z" transform="translate(0 -3.351)"/><ellipse class="b" cx="6.484" cy="6.434" rx="6.484" ry="6.434" transform="translate(14.655 14.496)"/><path class="c" d="M4.365,3.157a.17.17,0,0,0,.17-.17V2.42a.17.17,0,0,0-.17-.17H.17A.17.17,0,0,0,0,2.42v.634a.17.17,0,0,0,.17.17H1.379a1.022,1.022,0,0,1,.864.386H.17a.17.17,0,0,0-.17.17v.567a.17.17,0,0,0,.17.17H2.42a.979.979,0,0,1-1.06.831H.17a.17.17,0,0,0-.17.17V6.27a.17.17,0,0,0,.055.125L2.394,8.554a.17.17,0,0,0,.115.045h1.17a.17.17,0,0,0,.115-.3L1.656,6.33a1.942,1.942,0,0,0,1.96-1.813h.748a.17.17,0,0,0,.17-.17V3.781a.17.17,0,0,0-.17-.17H3.533a1.941,1.941,0,0,0-.2-.454Z" transform="translate(18.75 15.746)"/><path d="M26.962,2.145a.282.282,0,0,0,.164-.052,8.555,8.555,0,0,1,8.938-.506l-.912.38,2.939.789L36.546.134l-.125,1a9.129,9.129,0,0,0-9.623.494.283.283,0,0,0,.164.514Z" transform="translate(-10.952 11.858)"/><path d="M1.586,22.842l.38.912.789-2.939L.134,22.361l1,.125a9.128,9.128,0,0,0,.495,9.623.283.283,0,1,0,.461-.328A8.556,8.556,0,0,1,1.586,22.842Z" transform="translate(11.945 -6.006)"/><path d="M31.781,109.22a8.557,8.557,0,0,1-8.938.506l.912-.38-2.939-.789,1.546,2.621.125-1a9.088,9.088,0,0,0,4.422,1.137,8.976,8.976,0,0,0,5.2-1.632.283.283,0,1,0-.328-.461Z" transform="translate(-5.921 -81.31)"/><path d="M109.684,26.8a.283.283,0,1,0-.461.328,8.555,8.555,0,0,1,.506,8.938l-.38-.912-.789,2.939,2.621-1.546-1-.125A9.128,9.128,0,0,0,109.684,26.8Z" transform="translate(-81.226 -11.037)"/></g></svg>