<svg xmlns="http://www.w3.org/2000/svg" width="35.884" height="35.95" viewBox="0 0 35.884 35.95"><defs><style>.a{fill:#f4f4ff;stroke:#000;stroke-linecap:round;stroke-linejoin:round;stroke-width:1.2px;}</style></defs><path class="a" d="M24.611,8.129a8.287,8.287,0,0,1,6.546,6.546M24.611,1.5A14.916,14.916,0,0,1,37.786,14.659M36.129,27.885v4.972a3.315,3.315,0,0,1-3.613,3.315,32.8,32.8,0,0,1-14.3-5.088,32.318,32.318,0,0,1-9.944-9.944A32.8,32.8,0,0,1,3.181,6.77a3.315,3.315,0,0,1,3.3-3.613h4.972a3.315,3.315,0,0,1,3.315,2.851,21.28,21.28,0,0,0,1.16,4.657,3.315,3.315,0,0,1-.746,3.5l-2.1,2.1a26.517,26.517,0,0,0,9.944,9.944l2.1-2.1a3.315,3.315,0,0,1,3.5-.746,21.28,21.28,0,0,0,4.657,1.16A3.315,3.315,0,0,1,36.129,27.885Z" transform="translate(-2.566 -0.837)"/></svg>