<svg xmlns="http://www.w3.org/2000/svg" width="47.037" height="43.056" viewBox="0 0 47.037 43.056"><defs><style>.a{fill:#96d6ab;}</style></defs><g transform="translate(-38 -1352.009)"><circle class="a" cx="9.5" cy="9.5" r="9.5" transform="translate(65 1375)"/><path d="M11.36,32.623H8.116a.811.811,0,1,1,0-1.622H11.36a.811.811,0,1,1,0,1.622Zm0-9.732H8.116a.811.811,0,0,1,0-1.622H11.36a.811.811,0,1,1,0,1.622Zm0,4.866H8.116a.811.811,0,0,1,0-1.622H11.36a.811.811,0,1,1,0,1.622Zm6.488,4.866H14.6A.811.811,0,1,1,14.6,31h3.244a.811.811,0,0,1,0,1.622Zm0-9.732H14.6a.811.811,0,1,1,0-1.622h3.244a.811.811,0,0,1,0,1.622Zm0,4.866H14.6a.811.811,0,1,1,0-1.622h3.244a.811.811,0,0,1,0,1.622ZM44.61,16.4h-.919l-.711,4.981a.811.811,0,1,1-1.6-.23l.679-4.751H3.374l2.714,19A2.445,2.445,0,0,0,8.5,37.488H21.9a.811.811,0,0,1,0,1.622H8.5a4.074,4.074,0,0,1-4.014-3.481L1.736,16.4H.817a.811.811,0,0,1-.811-.811V12.348a.811.811,0,0,1,.811-.811H24l9.9-9.9a2.59,2.59,0,0,1,3.578,0,2.534,2.534,0,0,1,0,3.58l-6.321,6.32H44.61a.811.811,0,0,1,.811.811v3.244A.811.811,0,0,1,44.61,16.4ZM1.628,13.159v1.622H20.756l1.622-1.622ZM36.333,4.07a.91.91,0,0,0,0-1.285.929.929,0,0,0-1.286,0l-12,12h2.572l.293-.292ZM43.8,13.159H29.537l-1.079,1.079-.543.543H43.8ZM21.091,31H21.9a.811.811,0,0,1,0,1.622h-.812a.811.811,0,0,1,0-1.622Zm-.81-4.055a.811.811,0,0,1,.81-.811h2.433a.811.811,0,1,1,0,1.622H21.091A.811.811,0,0,1,20.281,26.946Zm.81-4.055a.811.811,0,0,1,0-1.622h3.244a.811.811,0,0,1,0,1.622Zm7.3,0h-.811a.811.811,0,0,1,0-1.622h.811a.811.811,0,0,1,0,1.622Zm8.11,0A10.543,10.543,0,1,1,25.957,33.434,10.554,10.554,0,0,1,36.5,22.891Zm0,19.463a8.921,8.921,0,1,0-8.921-8.92A8.93,8.93,0,0,0,36.5,42.354Zm-3.5-8.7L35.3,35.846l4.594-6.529a.811.811,0,0,1,1.327.933l-5.137,7.3a.811.811,0,0,1-.584.341c-.027,0-.053,0-.079,0a.812.812,0,0,1-.56-.225l-2.973-2.839A.811.811,0,1,1,33,33.659Z" transform="translate(37.994 1351.089)"/></g></svg>