<svg xmlns="http://www.w3.org/2000/svg" width="28.338" height="28.338" viewBox="0 0 28.338 28.338"><defs><style>.a{fill:#ffdb80;}.b{fill:#2d4356;}.c{fill:#d02030;}.d{fill:#81d9e3;}.e{fill:#e1ebf4;}.f{fill:#e8fbfc;opacity:0.4;}.g{fill:#0f423c;}.g,.m{opacity:0.3;}.h{fill:#f9edd2;}.h,.j,.k,.l{opacity:0.5;}.i{fill:#ad9359;opacity:0.45;}.j{fill:#9fa5aa;}.k{fill:#fff;}.l{fill:#a54b3f;}.m{fill:#f9dbd7;}</style></defs><g transform="translate(0 0.001)"><path class="a" d="M38.368,28.184A10.184,10.184,0,1,1,28.184,18,10.184,10.184,0,0,1,38.368,28.184Z" transform="translate(-14.015 -14.015)"/><path class="b" d="M37.3,38.364a8.586,8.586,0,0,1-1.189.392,26.53,26.53,0,0,1-6.259.3H29.84a1.635,1.635,0,0,1-1.625-1.621,1.578,1.578,0,0,1,.228-.8,1.657,1.657,0,0,1-.739-.429,1.575,1.575,0,0,1-.467-1.129,1.6,1.6,0,0,1,.292-.9,1.629,1.629,0,0,1-.474-.33,1.575,1.575,0,0,1-.467-1.129,1.6,1.6,0,0,1,.319-.936,1.535,1.535,0,0,1-.9-1.233,1.688,1.688,0,0,1,1.7-1.76h4.065l-.2-.967a3.442,3.442,0,0,1,1.711-3.691.981.981,0,0,1,.861-.049.926.926,0,0,1,.54.629l.793,3.157a2.35,2.35,0,0,0,1.291,1.541c.162.077.334.148.509.217a2.653,2.653,0,0,0-.2.87c-.146-.055-.29-.111-.432-.17-.089-.038-.175-.075-.261-.117a3.227,3.227,0,0,1-1.769-2.123l-.793-3.159c-.009-.04-.077-.04-.1-.024a2.556,2.556,0,0,0-1.282,2.736l.317,1.5a.449.449,0,0,1-.434.534H27.71a.712.712,0,1,0,.011,1.4h.007l3.518-.018a.443.443,0,1,1,.009.886l-2.967.027a.8.8,0,0,0-.815.753.7.7,0,0,0,.208.5.822.822,0,0,0,.582.232l2.971-.027a.449.449,0,0,1,.447.438.443.443,0,0,1-.438.447l-2.3.02a.8.8,0,0,0-.817.753.692.692,0,0,0,.208.5.825.825,0,0,0,.582.232l2.369-.02h.02a.443.443,0,1,1,.009.886l-1.395.013a.794.794,0,0,0-.815.753.742.742,0,0,0,.751.728,28.49,28.49,0,0,0,5.659-.182,7.354,7.354,0,0,0,1.315-.39c.091-.038.175-.069.252-.1,0,0,0,0,0,0a2.649,2.649,0,0,0,.219.868Z" transform="translate(-20.245 -18.689)"/><path class="b" d="M82.214,46h-.443A1.773,1.773,0,0,0,80,47.771v6.642a1.773,1.773,0,0,0,1.771,1.771h.443a1.773,1.773,0,0,0,1.771-1.771V47.771A1.773,1.773,0,0,0,82.214,46Zm.886,8.413a.885.885,0,0,1-.886.886h-.443a.885.885,0,0,1-.886-.886V47.771a.885.885,0,0,1,.886-.886h.443a.885.885,0,0,1,.886.886Z" transform="translate(-62.289 -35.816)"/><rect class="c" width="2" height="8" rx="1" transform="translate(19 11.454)"/><path class="b" d="M27.384,15.785a1.542,1.542,0,0,1,.359-.5,1.769,1.769,0,0,0,.6-1.118,1.769,1.769,0,0,0-.6-1.118,1.543,1.543,0,0,1-.359-.5,1.59,1.59,0,0,1,.235-.589,1.736,1.736,0,0,0,.31-1.209,1.738,1.738,0,0,0-.841-.939c-.179-.122-.427-.29-.469-.4a1.6,1.6,0,0,1,.089-.624,1.747,1.747,0,0,0,.011-1.253,1.74,1.74,0,0,0-1.038-.706,1.578,1.578,0,0,1-.553-.275,1.619,1.619,0,0,1-.062-.624,1.746,1.746,0,0,0-.288-1.222A1.728,1.728,0,0,0,23.6,4.275,1.563,1.563,0,0,1,23,4.14a1.6,1.6,0,0,1-.208-.589,1.751,1.751,0,0,0-.569-1.122,1.731,1.731,0,0,0-1.244-.139,1.547,1.547,0,0,1-.62.011,1.568,1.568,0,0,1-.337-.518A1.749,1.749,0,0,0,19.2.828a1.724,1.724,0,0,0-1.238.164,1.633,1.633,0,0,1-.6.164c-.111-.029-.306-.255-.447-.418A1.752,1.752,0,0,0,15.876.006,1.713,1.713,0,0,0,14.72.462a1.576,1.576,0,0,1-.551.306,1.576,1.576,0,0,1-.551-.306A1.713,1.713,0,0,0,12.462.006a1.752,1.752,0,0,0-1.034.731c-.142.164-.337.39-.447.418a1.633,1.633,0,0,1-.6-.164A1.713,1.713,0,0,0,9.141.828a1.757,1.757,0,0,0-.824.954,1.533,1.533,0,0,1-.337.518,1.589,1.589,0,0,1-.62-.011,1.72,1.72,0,0,0-1.244.139,1.761,1.761,0,0,0-.569,1.122,1.6,1.6,0,0,1-.208.589,1.563,1.563,0,0,1-.6.135,1.732,1.732,0,0,0-1.176.436,1.746,1.746,0,0,0-.288,1.222,1.576,1.576,0,0,1-.062.624,1.578,1.578,0,0,1-.553.275,1.737,1.737,0,0,0-1.038.706,1.747,1.747,0,0,0,.011,1.253,1.6,1.6,0,0,1,.089.624c-.042.111-.29.277-.469.4a1.738,1.738,0,0,0-.841.939,1.736,1.736,0,0,0,.31,1.209,1.59,1.59,0,0,1,.235.589,1.543,1.543,0,0,1-.359.5A1.769,1.769,0,0,0,0,14.169a1.769,1.769,0,0,0,.6,1.118,1.542,1.542,0,0,1,.359.5,1.59,1.59,0,0,1-.235.589,1.736,1.736,0,0,0-.31,1.209,1.738,1.738,0,0,0,.841.939c.179.122.427.29.469.4a1.6,1.6,0,0,1-.089.624A1.747,1.747,0,0,0,1.621,20.8a1.74,1.74,0,0,0,1.038.706,1.578,1.578,0,0,1,.553.275,1.619,1.619,0,0,1,.062.624,1.746,1.746,0,0,0,.288,1.222,1.728,1.728,0,0,0,1.176.436,1.563,1.563,0,0,1,.6.135,1.6,1.6,0,0,1,.208.589,1.751,1.751,0,0,0,.569,1.122,1.731,1.731,0,0,0,1.244.139,1.547,1.547,0,0,1,.62-.011,1.567,1.567,0,0,1,.337.518,1.749,1.749,0,0,0,.824.954,1.724,1.724,0,0,0,1.238-.164,1.633,1.633,0,0,1,.6-.164c.111.029.306.255.447.418a1.752,1.752,0,0,0,1.034.731.965.965,0,0,0,.113.007,1.9,1.9,0,0,0,1.043-.463,1.576,1.576,0,0,1,.551-.306,1.576,1.576,0,0,1,.551.306,1.713,1.713,0,0,0,1.156.456A1.752,1.752,0,0,0,16.91,27.6c.142-.164.337-.39.447-.418a1.633,1.633,0,0,1,.6.164,1.724,1.724,0,0,0,1.238.164,1.757,1.757,0,0,0,.824-.954,1.533,1.533,0,0,1,.337-.518,1.547,1.547,0,0,1,.62.011,1.72,1.72,0,0,0,1.244-.139,1.761,1.761,0,0,0,.569-1.122A1.6,1.6,0,0,1,23,24.2a1.563,1.563,0,0,1,.6-.135,1.732,1.732,0,0,0,1.176-.436,1.746,1.746,0,0,0,.288-1.222,1.576,1.576,0,0,1,.062-.624,1.578,1.578,0,0,1,.553-.275,1.737,1.737,0,0,0,1.038-.706,1.747,1.747,0,0,0-.011-1.253,1.6,1.6,0,0,1-.089-.624c.042-.111.29-.277.469-.4a1.738,1.738,0,0,0,.841-.939,1.736,1.736,0,0,0-.31-1.209,1.59,1.59,0,0,1-.235-.589Zm-.3-1.091a1.915,1.915,0,0,0-.58.985,1.942,1.942,0,0,0,.334,1.114,1.488,1.488,0,0,1,.23.58c-.027.108-.3.294-.48.416a1.92,1.92,0,0,0-.8.821,1.945,1.945,0,0,0,.058,1.156,1.5,1.5,0,0,1,.086.624c-.051.1-.359.21-.562.283a1.912,1.912,0,0,0-.976.607,1.934,1.934,0,0,0-.217,1.134,1.512,1.512,0,0,1-.066.629,1.47,1.47,0,0,1-.609.142,1.9,1.9,0,0,0-1.1.354,1.944,1.944,0,0,0-.48,1.049,1.5,1.5,0,0,1-.213.593,1.433,1.433,0,0,1-.622-.009,1.907,1.907,0,0,0-1.149.082,1.921,1.921,0,0,0-.713.9c-.1.195-.248.489-.35.527a1.513,1.513,0,0,1-.6-.159,1.914,1.914,0,0,0-1.138-.2,1.9,1.9,0,0,0-.905.7c-.144.166-.359.416-.469.429a1.533,1.533,0,0,1-.536-.3,1.934,1.934,0,0,0-1.065-.469,1.934,1.934,0,0,0-1.065.469c-.162.117-.436.31-.536.3s-.325-.263-.469-.429a1.9,1.9,0,0,0-.905-.7,1.091,1.091,0,0,0-.252-.029,2.493,2.493,0,0,0-.886.228,1.513,1.513,0,0,1-.6.159c-.1-.038-.25-.332-.35-.527a1.924,1.924,0,0,0-.713-.9,1.912,1.912,0,0,0-1.151-.082,1.459,1.459,0,0,1-.62.009,1.491,1.491,0,0,1-.215-.6,1.926,1.926,0,0,0-.478-1.047,1.9,1.9,0,0,0-1.1-.354,1.5,1.5,0,0,1-.609-.142,1.517,1.517,0,0,1-.066-.629,1.931,1.931,0,0,0-.217-1.134,1.912,1.912,0,0,0-.976-.607c-.2-.075-.511-.188-.562-.286a1.489,1.489,0,0,1,.086-.622,1.945,1.945,0,0,0,.058-1.156,1.913,1.913,0,0,0-.8-.821c-.179-.122-.452-.308-.478-.416a1.488,1.488,0,0,1,.23-.58,1.942,1.942,0,0,0,.334-1.114,1.915,1.915,0,0,0-.58-.985c-.146-.162-.368-.41-.368-.525s.221-.363.368-.525a1.915,1.915,0,0,0,.58-.985A1.942,1.942,0,0,0,1.5,11.545a1.488,1.488,0,0,1-.23-.58c.027-.108.3-.294.48-.416a1.92,1.92,0,0,0,.8-.821,1.945,1.945,0,0,0-.058-1.156A1.5,1.5,0,0,1,2.4,7.947c.051-.1.359-.21.562-.283a1.912,1.912,0,0,0,.976-.607A1.934,1.934,0,0,0,4.16,5.924,1.512,1.512,0,0,1,4.226,5.3a1.47,1.47,0,0,1,.609-.142,1.9,1.9,0,0,0,1.1-.354,1.944,1.944,0,0,0,.48-1.049,1.5,1.5,0,0,1,.213-.593,1.433,1.433,0,0,1,.622.009A1.907,1.907,0,0,0,8.4,3.084a1.921,1.921,0,0,0,.713-.9c.1-.195.248-.489.35-.527a1.513,1.513,0,0,1,.6.159,1.914,1.914,0,0,0,1.138.2,1.9,1.9,0,0,0,.905-.7c.144-.166.359-.416.469-.429s.374.182.536.3a1.934,1.934,0,0,0,1.065.469,1.934,1.934,0,0,0,1.065-.469c.162-.117.434-.31.536-.3s.325.263.469.429a1.9,1.9,0,0,0,.905.7,1.914,1.914,0,0,0,1.138-.2,1.522,1.522,0,0,1,.6-.159c.1.038.25.332.35.527a1.924,1.924,0,0,0,.713.9,1.912,1.912,0,0,0,1.151.082,1.423,1.423,0,0,1,.62-.009,1.491,1.491,0,0,1,.215.6A1.926,1.926,0,0,0,22.407,4.8a1.9,1.9,0,0,0,1.1.354,1.5,1.5,0,0,1,.609.142,1.517,1.517,0,0,1,.066.629,1.931,1.931,0,0,0,.217,1.134,1.912,1.912,0,0,0,.976.607c.2.075.511.188.562.286a1.489,1.489,0,0,1-.086.622,1.945,1.945,0,0,0-.058,1.156,1.913,1.913,0,0,0,.8.821c.179.122.452.308.478.416a1.488,1.488,0,0,1-.23.58,1.942,1.942,0,0,0-.334,1.114,1.915,1.915,0,0,0,.58.985c.146.162.367.41.367.525s-.221.363-.368.525Z" transform="translate(0 0)"/><path class="d" d="M30.2,17.807c.146-.162.368-.41.368-.525s-.221-.363-.368-.525a1.915,1.915,0,0,1-.58-.985,1.942,1.942,0,0,1,.334-1.114,1.488,1.488,0,0,0,.23-.58c-.027-.108-.3-.294-.478-.416a1.913,1.913,0,0,1-.8-.821,1.945,1.945,0,0,1,.058-1.156,1.489,1.489,0,0,0,.086-.622c-.051-.1-.359-.21-.562-.286a1.912,1.912,0,0,1-.976-.607,1.931,1.931,0,0,1-.217-1.134,1.517,1.517,0,0,0-.066-.629,1.5,1.5,0,0,0-.609-.142,1.9,1.9,0,0,1-1.1-.354,1.926,1.926,0,0,1-.478-1.047,1.491,1.491,0,0,0-.215-.6,1.423,1.423,0,0,0-.62.009A1.912,1.912,0,0,1,23.057,6.2a1.924,1.924,0,0,1-.713-.9c-.1-.195-.248-.489-.35-.527a1.522,1.522,0,0,0-.6.159,1.914,1.914,0,0,1-1.138.2,1.9,1.9,0,0,1-.905-.7c-.144-.166-.359-.416-.469-.429s-.374.182-.536.3a1.934,1.934,0,0,1-1.065.469A1.934,1.934,0,0,1,16.219,4.3c-.162-.117-.436-.31-.536-.3s-.325.263-.469.429a1.9,1.9,0,0,1-.905.7,1.914,1.914,0,0,1-1.138-.2,1.513,1.513,0,0,0-.6-.159c-.1.038-.25.332-.35.527a1.921,1.921,0,0,1-.713.9,1.907,1.907,0,0,1-1.149.082,1.433,1.433,0,0,0-.622-.009,1.5,1.5,0,0,0-.213.593,1.944,1.944,0,0,1-.48,1.049,1.9,1.9,0,0,1-1.1.354,1.47,1.47,0,0,0-.609.142,1.512,1.512,0,0,0-.066.629,1.934,1.934,0,0,1-.217,1.134,1.912,1.912,0,0,1-.976.607c-.2.073-.511.186-.562.283a1.5,1.5,0,0,0,.086.624,1.945,1.945,0,0,1,.058,1.156,1.92,1.92,0,0,1-.8.821c-.182.122-.454.308-.48.416a1.488,1.488,0,0,0,.23.58,1.942,1.942,0,0,1,.334,1.114,1.915,1.915,0,0,1-.58.985c-.146.162-.368.41-.368.525s.221.363.368.525a1.915,1.915,0,0,1,.58.985,1.942,1.942,0,0,1-.334,1.114,1.488,1.488,0,0,0-.23.58c.027.108.3.294.478.416a1.913,1.913,0,0,1,.8.821,1.945,1.945,0,0,1-.058,1.156,1.489,1.489,0,0,0-.086.622c.051.1.359.21.562.286a1.912,1.912,0,0,1,.976.607,1.931,1.931,0,0,1,.217,1.134,1.517,1.517,0,0,0,.066.629,1.5,1.5,0,0,0,.609.142,1.9,1.9,0,0,1,1.1.354A1.926,1.926,0,0,1,9.524,27.7a1.491,1.491,0,0,0,.215.6,1.459,1.459,0,0,0,.62-.009,1.913,1.913,0,0,1,1.151.082,1.924,1.924,0,0,1,.713.9c.1.195.248.489.35.527a1.513,1.513,0,0,0,.6-.159,2.493,2.493,0,0,1,.886-.228,1.09,1.09,0,0,1,.252.029,1.9,1.9,0,0,1,.905.7c.144.166.359.416.469.429s.374-.182.536-.3a1.934,1.934,0,0,1,1.065-.469,1.934,1.934,0,0,1,1.065.469,1.533,1.533,0,0,0,.536.3c.111-.013.325-.263.469-.429a1.9,1.9,0,0,1,.905-.7,1.914,1.914,0,0,1,1.138.2,1.512,1.512,0,0,0,.6.159c.1-.038.25-.332.35-.527a1.921,1.921,0,0,1,.713-.9,1.907,1.907,0,0,1,1.149-.082,1.433,1.433,0,0,0,.622.009,1.5,1.5,0,0,0,.213-.593,1.944,1.944,0,0,1,.48-1.049,1.9,1.9,0,0,1,1.1-.354,1.47,1.47,0,0,0,.609-.142,1.512,1.512,0,0,0,.066-.629,1.934,1.934,0,0,1,.217-1.134,1.912,1.912,0,0,1,.976-.607c.2-.073.511-.186.562-.283a1.5,1.5,0,0,0-.086-.624,1.945,1.945,0,0,1-.058-1.156,1.92,1.92,0,0,1,.8-.821c.182-.122.454-.308.48-.416a1.488,1.488,0,0,0-.23-.58,1.942,1.942,0,0,1-.334-1.114A1.915,1.915,0,0,1,30.2,17.807ZM17.283,28.351a11.07,11.07,0,1,1,11.07-11.07,11.07,11.07,0,0,1-11.07,11.07Z" transform="translate(-3.114 -3.113)"/><path class="b" d="M25.07,14a11.07,11.07,0,1,0,11.07,11.07A11.07,11.07,0,0,0,25.07,14Zm0,21.253A10.184,10.184,0,1,1,35.253,25.07,10.184,10.184,0,0,1,25.07,35.253Z" transform="translate(-10.901 -10.901)"/><path class="e" d="M40.188,33.611v7c-.077.033-.162.064-.252.1a7.354,7.354,0,0,1-1.315.39,28.491,28.491,0,0,1-5.659.182.742.742,0,0,1-.751-.728.794.794,0,0,1,.815-.753l1.395-.013a.443.443,0,1,0-.009-.886h-.02l-2.369.02a.825.825,0,0,1-.582-.232.692.692,0,0,1-.208-.5.8.8,0,0,1,.817-.753l2.3-.02a.443.443,0,0,0,.438-.447.449.449,0,0,0-.447-.438l-2.971.027a.822.822,0,0,1-.582-.232.7.7,0,0,1-.208-.5.8.8,0,0,1,.815-.753l2.967-.027a.443.443,0,1,0-.009-.886l-3.518.018h-.007a.712.712,0,1,1-.011-1.4h4.609a.449.449,0,0,0,.434-.534l-.317-1.5a2.387,2.387,0,0,1-.042-.277v-.009a2.566,2.566,0,0,1,1.324-2.451c.027-.015.1-.015.1.024l.793,3.159A3.227,3.227,0,0,0,39.5,33.323c.086.042.173.08.261.117C39.9,33.5,40.042,33.555,40.188,33.611Z" transform="translate(-23.356 -21.807)"/><path class="f" d="M117.523,44.5a.684.684,0,0,1-.093.314,3.418,3.418,0,0,0-.385-.288,1.913,1.913,0,0,1-.8-.821,1.263,1.263,0,0,1-.051-.635,1.033,1.033,0,0,0,.051.193,1.913,1.913,0,0,0,.8.821C117.224,44.206,117.5,44.392,117.523,44.5Z" transform="translate(-90.453 -33.535)"/><path class="f" d="M110.93,30.2a2.169,2.169,0,0,0-.531-.248,1.912,1.912,0,0,1-.976-.607,1.931,1.931,0,0,1-.217-1.134V28.05a1.522,1.522,0,0,0,.217.848,1.912,1.912,0,0,0,.976.607c.2.075.511.188.562.286A.854.854,0,0,1,110.93,30.2Z" transform="translate(-85.027 -21.84)"/><path class="f" d="M7.01,43.705a1.92,1.92,0,0,1-.8.821,3.446,3.446,0,0,0-.387.288A.684.684,0,0,1,5.73,44.5c.027-.108.3-.294.48-.416a1.92,1.92,0,0,0,.8-.821,1.033,1.033,0,0,0,.051-.193A1.263,1.263,0,0,1,7.01,43.705Z" transform="translate(-4.461 -33.535)"/><path class="f" d="M12.358,29.341a1.912,1.912,0,0,1-.976.607,2.093,2.093,0,0,0-.531.246.854.854,0,0,1-.031-.405c.051-.1.359-.21.562-.283a1.912,1.912,0,0,0,.976-.607,1.527,1.527,0,0,0,.217-.848v.157A1.934,1.934,0,0,1,12.358,29.341Z" transform="translate(-8.415 -21.84)"/><path class="g" d="M12.575,92.248v.157a1.522,1.522,0,0,0-.217-.848,1.912,1.912,0,0,0-.976-.607c-.2-.075-.511-.188-.562-.286a.854.854,0,0,1,.031-.405,2.17,2.17,0,0,0,.531.248,1.912,1.912,0,0,1,.976.607A1.931,1.931,0,0,1,12.575,92.248Z" transform="translate(-8.415 -70.278)"/><path class="g" d="M117.523,77.364c-.027.108-.3.294-.48.416a1.92,1.92,0,0,0-.8.821,1.031,1.031,0,0,0-.051.193,1.263,1.263,0,0,1,.051-.635,1.92,1.92,0,0,1,.8-.821,3.447,3.447,0,0,0,.387-.288A.684.684,0,0,1,117.523,77.364Z" transform="translate(-90.453 -59.992)"/><path class="g" d="M110.961,90.675c-.051.1-.359.21-.562.283a1.912,1.912,0,0,0-.976.607,1.527,1.527,0,0,0-.217.848v-.157a1.934,1.934,0,0,1,.217-1.134,1.912,1.912,0,0,1,.976-.607,2.092,2.092,0,0,0,.531-.246A.854.854,0,0,1,110.961,90.675Z" transform="translate(-85.028 -70.286)"/><path class="g" d="M38.739,101.308a1.47,1.47,0,0,1-.609.142,1.9,1.9,0,0,0-1.1.354,1.944,1.944,0,0,0-.48,1.049,1.5,1.5,0,0,1-.213.593,1.433,1.433,0,0,1-.622-.009,1.907,1.907,0,0,0-1.149.082,1.921,1.921,0,0,0-.713.9c-.1.195-.248.489-.35.527a1.513,1.513,0,0,1-.6-.159,1.914,1.914,0,0,0-1.138-.2,1.9,1.9,0,0,0-.905.7c-.144.166-.359.416-.469.429a1.533,1.533,0,0,1-.536-.3,1.934,1.934,0,0,0-1.065-.469,1.934,1.934,0,0,0-1.065.469c-.162.117-.436.31-.536.3s-.325-.263-.469-.429a1.9,1.9,0,0,0-.905-.7,1.09,1.09,0,0,0-.252-.029,2.492,2.492,0,0,0-.886.228,1.513,1.513,0,0,1-.6.159c-.1-.038-.25-.332-.35-.527a1.924,1.924,0,0,0-.713-.9,1.912,1.912,0,0,0-1.151-.082,1.459,1.459,0,0,1-.62.009,1.491,1.491,0,0,1-.215-.6,1.926,1.926,0,0,0-.478-1.047,1.9,1.9,0,0,0-1.1-.354,1.5,1.5,0,0,1-.609-.142,1.517,1.517,0,0,1-.066-.629c0-.053,0-.106,0-.159a.75.75,0,0,0,.064.345,1.5,1.5,0,0,0,.609.142,1.9,1.9,0,0,1,1.1.354,1.926,1.926,0,0,1,.478,1.047,1.491,1.491,0,0,0,.215.6,1.459,1.459,0,0,0,.62-.009,1.912,1.912,0,0,1,1.151.082,1.924,1.924,0,0,1,.713.9c.1.195.248.489.35.527a1.513,1.513,0,0,0,.6-.159,2.493,2.493,0,0,1,.886-.228,1.09,1.09,0,0,1,.252.029,1.9,1.9,0,0,1,.905.7c.144.166.359.416.469.429s.374-.182.536-.3a1.934,1.934,0,0,1,1.065-.469,1.934,1.934,0,0,1,1.065.469,1.533,1.533,0,0,0,.536.3c.111-.013.325-.263.469-.43a1.9,1.9,0,0,1,.905-.7,1.914,1.914,0,0,1,1.138.2,1.512,1.512,0,0,0,.6.159c.1-.038.25-.332.35-.527a1.921,1.921,0,0,1,.713-.9A1.907,1.907,0,0,1,35.719,103a1.433,1.433,0,0,0,.622.009,1.5,1.5,0,0,0,.213-.593,1.944,1.944,0,0,1,.48-1.049,1.9,1.9,0,0,1,1.1-.354,1.471,1.471,0,0,0,.609-.142.75.75,0,0,0,.064-.345c0,.053,0,.106,0,.159A1.512,1.512,0,0,1,38.739,101.308Z" transform="translate(-14.627 -78.266)"/><path class="f" d="M38.805,9.037c0,.053,0,.106,0,.159a.75.75,0,0,0-.064-.345,1.5,1.5,0,0,0-.609-.142,1.9,1.9,0,0,1-1.1-.354,1.926,1.926,0,0,1-.478-1.047,1.491,1.491,0,0,0-.215-.6,1.423,1.423,0,0,0-.62.009A1.912,1.912,0,0,1,34.57,6.64a1.924,1.924,0,0,1-.713-.9c-.1-.195-.248-.489-.35-.527a1.522,1.522,0,0,0-.6.159,1.914,1.914,0,0,1-1.138.2,1.9,1.9,0,0,1-.905-.7c-.144-.166-.359-.416-.469-.429s-.374.182-.536.3a1.934,1.934,0,0,1-1.065.469,1.934,1.934,0,0,1-1.065-.469c-.162-.117-.436-.31-.536-.3s-.325.263-.469.429a1.9,1.9,0,0,1-.905.7,1.914,1.914,0,0,1-1.138-.2,1.513,1.513,0,0,0-.6-.159c-.1.038-.25.332-.35.527a1.921,1.921,0,0,1-.713.9,1.907,1.907,0,0,1-1.149.082,1.433,1.433,0,0,0-.622-.009,1.5,1.5,0,0,0-.213.593,1.944,1.944,0,0,1-.48,1.049,1.9,1.9,0,0,1-1.1.354,1.47,1.47,0,0,0-.609.142.75.75,0,0,0-.064.345c0-.053,0-.106,0-.159a1.512,1.512,0,0,1,.066-.629,1.47,1.47,0,0,1,.609-.142,1.9,1.9,0,0,0,1.1-.354,1.944,1.944,0,0,0,.48-1.049,1.5,1.5,0,0,1,.213-.593,1.433,1.433,0,0,1,.622.009A1.907,1.907,0,0,0,23.023,6.2a1.921,1.921,0,0,0,.713-.9c.1-.195.248-.489.35-.527a1.513,1.513,0,0,1,.6.159,1.914,1.914,0,0,0,1.138.2,1.9,1.9,0,0,0,.905-.7c.144-.166.359-.416.469-.429s.374.182.536.3a1.934,1.934,0,0,0,1.065.469A1.934,1.934,0,0,0,29.861,4.3c.162-.117.434-.31.536-.3s.325.263.469.429a1.9,1.9,0,0,0,.905.7,1.914,1.914,0,0,0,1.138-.2,1.522,1.522,0,0,1,.6-.159c.1.038.25.332.35.527a1.924,1.924,0,0,0,.713.9,1.912,1.912,0,0,0,1.151.082,1.423,1.423,0,0,1,.62-.009,1.491,1.491,0,0,1,.215.6,1.926,1.926,0,0,0,.478,1.047,1.9,1.9,0,0,0,1.1.354,1.5,1.5,0,0,1,.609.142A1.517,1.517,0,0,1,38.805,9.037Z" transform="translate(-14.627 -3.113)"/><path class="h" d="M38.368,28.184c0,.073,0,.148,0,.221a10.181,10.181,0,1,0-20.361,0c0-.073,0-.148,0-.221a10.184,10.184,0,1,1,20.368,0Z" transform="translate(-14.015 -14.015)"/><path class="i" d="M38.368,63.221a10.184,10.184,0,0,1-20.368,0c0-.073,0-.148,0-.221a10.181,10.181,0,1,0,20.361,0C38.368,63.073,38.368,63.148,38.368,63.221Z" transform="translate(-14.015 -49.053)"/><path class="j" d="M48.2,83.818l-.137.053a2.6,2.6,0,0,1-.082-.478s0,0,0,0c-.077.033-.162.064-.252.1a7.353,7.353,0,0,1-1.315.39,28.49,28.49,0,0,1-5.659.182A.742.742,0,0,1,40,83.34a.651.651,0,0,1,.038-.219.753.753,0,0,0,.713.5,28.49,28.49,0,0,0,5.659-.182,7.352,7.352,0,0,0,1.315-.39c.091-.038.175-.069.252-.1,0,0,0,0,0,0A2.65,2.65,0,0,0,48.2,83.818Z" transform="translate(-31.144 -64.586)"/><path class="j" d="M39.206,73.991a.428.428,0,0,1-.06.224A.443.443,0,0,0,38.759,74h-.02l-2.369.02a.825.825,0,0,1-.582-.232.692.692,0,0,1-.208-.5.648.648,0,0,1,.038-.217.7.7,0,0,0,.17.27.826.826,0,0,0,.582.232l2.369-.02h.02A.443.443,0,0,1,39.206,73.991Z" transform="translate(-27.703 -56.893)"/><path class="j" d="M36.859,63.324a.436.436,0,0,1-.06.226.461.461,0,0,0-.387-.221l-2.971.027a.822.822,0,0,1-.582-.232.7.7,0,0,1-.208-.5.648.648,0,0,1,.038-.217.7.7,0,0,0,.17.27.822.822,0,0,0,.582.232l2.971-.027a.449.449,0,0,1,.447.438Z" transform="translate(-25.422 -48.593)"/><path class="k" d="M35.431,49.142H30.821a.847.847,0,0,0-.784.5A.513.513,0,0,1,30,49.492a.783.783,0,0,1,.821-.793h4.609a.439.439,0,0,0,.4-.259l.035.168a.449.449,0,0,1-.434.534Z" transform="translate(-23.356 -37.716)"/><path class="k" d="M59.534,33.611v.443c-.146-.055-.29-.111-.432-.17-.089-.038-.175-.075-.261-.117a3.227,3.227,0,0,1-1.769-2.123l-.793-3.159c-.009-.04-.077-.04-.1-.024a2.6,2.6,0,0,0-1.324,2.008,2.566,2.566,0,0,1,1.324-2.451c.027-.015.1-.015.1.024l.793,3.159a3.227,3.227,0,0,0,1.769,2.123c.086.042.173.08.261.117C59.244,33.5,59.388,33.555,59.534,33.611Z" transform="translate(-42.702 -21.807)"/><path class="l" d="M86.214,82v.443a.885.885,0,0,1-.886.886h-.443A.885.885,0,0,1,84,82.443V82a.885.885,0,0,0,.886.886h.443A.885.885,0,0,0,86.214,82Z" transform="translate(-65.403 -63.846)"/><path class="m" d="M86.214,50.886v.443a.885.885,0,0,0-.886-.886h-.443a.885.885,0,0,0-.886.886v-.443A.885.885,0,0,1,84.886,50h.443a.885.885,0,0,1,.886.886Z" transform="translate(-65.403 -38.931)"/><path class="g" d="M7.061,78.795A1.032,1.032,0,0,0,7.01,78.6a1.913,1.913,0,0,0-.8-.821c-.179-.122-.452-.308-.478-.416a.684.684,0,0,1,.093-.314,3.417,3.417,0,0,0,.385.288,1.913,1.913,0,0,1,.8.821A1.263,1.263,0,0,1,7.061,78.795Z" transform="translate(-4.461 -59.992)"/></g></svg>